<svg width="118" height="67" viewBox="0 0 118 67" fill="none" xmlns="http://www.w3.org/2000/svg">
<path d="M98.698 39V24.7785L87.3125 0.406281H93.1889L99.9572 14.9979C100.412 15.9495 100.779 16.8483 101.059 17.6942C101.339 18.5048 101.531 19.1392 101.636 19.5974C101.706 19.1392 101.881 18.5048 102.161 17.6942C102.476 16.8483 102.843 15.9495 103.263 14.9979L109.874 0.406281H115.75L104.364 24.7785V39H98.698Z" fill="#0E0227"/>
<path d="M2 39L11.5556 0.406281H18.8507L28.4062 39H22.8065L20.546 29.2194H9.91159L7.65114 39H2ZM10.9391 24.5141H19.4672L16.8985 13.359C16.4532 11.3852 16.0765 9.67582 15.7682 8.23076C15.4942 6.75045 15.3059 5.74596 15.2031 5.21728C15.1004 5.74596 14.912 6.75045 14.638 8.23076C14.364 9.67582 13.9873 11.3676 13.5078 13.3061L10.9391 24.5141Z" fill="#0E0227"/>
<path d="M36.5312 9.74999H41.4062V4.875H46.2812V0H51.1562V34.125H60.9062V39H36.5312V34.125H46.2812V9.74999H41.4062V14.625H36.5312V9.74999Z" fill="#0E0227"/>
<path d="M60.9062 9.74999H65.7812V4.875H70.6562V0H75.5312V34.125H85.2812V39H60.9062V34.125H70.6562V9.74999H65.7812V14.625H60.9062V9.74999Z" fill="#0E0227"/>
<path d="M1.8482 66V45.5578H8.82096C10.2584 45.5578 11.5092 45.8285 12.5734 46.3699C13.6561 46.9113 14.4869 47.6673 15.0656 48.6381C15.663 49.6089 15.9617 50.7477 15.9617 52.0545C15.9617 53.3426 15.663 54.4814 15.0656 55.4709C14.4682 56.4416 13.6375 57.1977 12.5734 57.7391C11.5092 58.2805 10.2584 58.5512 8.82096 58.5512H6.04865V66H1.8482ZM6.04865 54.7708H8.82096C9.71705 54.7708 10.4265 54.5281 10.9492 54.0427C11.4906 53.5387 11.7613 52.8759 11.7613 52.0545C11.7613 51.2331 11.4906 50.5797 10.9492 50.0943C10.4265 49.5902 9.71705 49.3382 8.82096 49.3382H6.04865V54.7708ZM18.6111 66V45.5578H25.1918C26.6479 45.5578 27.9081 45.8098 28.9722 46.3139C30.0363 46.8179 30.8577 47.5367 31.4365 48.4701C32.0339 49.4035 32.3326 50.505 32.3326 51.7745C32.3326 53.0999 32.0059 54.2854 31.3525 55.3308C30.7177 56.3763 29.8496 57.1324 28.7482 57.5991L32.6126 66H28.0481L24.7437 58.2712H22.7835V66H18.6111ZM22.7835 54.6308H25.1918C26.1252 54.6308 26.844 54.3974 27.348 53.9307C27.8707 53.464 28.1321 52.8106 28.1321 51.9705C28.1321 51.0931 27.8707 50.4116 27.348 49.9263C26.844 49.4409 26.1252 49.1982 25.1918 49.1982H22.7835V54.6308ZM41.9827 66.28C40.6199 66.28 39.4344 66.028 38.4263 65.5239C37.4182 65.0012 36.6341 64.2825 36.074 63.3677C35.5326 62.4343 35.2619 61.3515 35.2619 60.1194V51.4384C35.2619 50.2063 35.5326 49.1328 36.074 48.2181C36.6341 47.2846 37.4182 46.5659 38.4263 46.0618C39.4344 45.5391 40.6199 45.2778 41.9827 45.2778C43.3642 45.2778 44.5496 45.5391 45.5391 46.0618C46.5472 46.5659 47.3219 47.2846 47.8633 48.2181C48.4234 49.1328 48.7034 50.2063 48.7034 51.4384V60.1194C48.7034 61.3515 48.4234 62.4343 47.8633 63.3677C47.3219 64.2825 46.5472 65.0012 45.5391 65.5239C44.5496 66.028 43.3642 66.28 41.9827 66.28ZM41.9827 62.6396C42.8228 62.6396 43.4482 62.4249 43.8589 61.9956C44.2883 61.5475 44.5029 60.9221 44.5029 60.1194V51.4384C44.5029 50.617 44.2976 49.9916 43.8869 49.5622C43.4762 49.1328 42.8414 48.9182 41.9827 48.9182C41.1239 48.9182 40.4892 49.1328 40.0785 49.5622C39.6678 49.9916 39.4624 50.617 39.4624 51.4384V60.1194C39.4624 60.9221 39.6678 61.5475 40.0785 61.9956C40.5078 62.4249 41.1426 62.6396 41.9827 62.6396ZM57.9335 66.308C55.7866 66.308 54.0784 65.7293 52.8089 64.5718C51.5581 63.3957 50.9327 61.8182 50.9327 59.8393H55.1332C55.1332 60.6981 55.3852 61.3888 55.8892 61.9116C56.3933 62.4156 57.0747 62.6676 57.9335 62.6676C58.7922 62.6676 59.4736 62.4249 59.9777 61.9396C60.4817 61.4355 60.7338 60.7541 60.7338 59.8953V49.4782H56.1133V45.5578H64.9342V59.8953C64.9342 61.8742 64.3088 63.4424 63.058 64.5998C61.8072 65.7386 60.099 66.308 57.9335 66.308ZM69.4038 66V45.5578H82.0051V49.1422H73.5202V53.7347H81.025V57.3191H73.5202V62.4156H82.0051V66H69.4038ZM92.4673 66.28C91.1045 66.28 89.9097 66.028 88.8829 65.5239C87.8562 65.0012 87.0534 64.2825 86.4747 63.3677C85.9146 62.4343 85.6346 61.3515 85.6346 60.1194V51.4384C85.6346 50.1876 85.9146 49.1048 86.4747 48.1901C87.0534 47.2753 87.8562 46.5659 88.8829 46.0618C89.9097 45.5391 91.1045 45.2778 92.4673 45.2778C93.8488 45.2778 95.0436 45.5391 96.0517 46.0618C97.0785 46.5659 97.8719 47.2753 98.432 48.1901C99.0107 49.1048 99.3001 50.1876 99.3001 51.4384H95.0996C95.0996 50.617 94.8662 49.9916 94.3995 49.5622C93.9515 49.1328 93.3074 48.9182 92.4673 48.9182C91.6272 48.9182 90.9738 49.1328 90.5071 49.5622C90.0591 49.9916 89.835 50.617 89.835 51.4384V60.1194C89.835 60.9221 90.0591 61.5475 90.5071 61.9956C90.9738 62.4249 91.6272 62.6396 92.4673 62.6396C93.3074 62.6396 93.9515 62.4249 94.3995 61.9956C94.8662 61.5475 95.0996 60.9221 95.0996 60.1194H99.3001C99.3001 61.3515 99.0107 62.4343 98.432 63.3677C97.8719 64.2825 97.0785 65.0012 96.0517 65.5239C95.0436 66.028 93.8488 66.28 92.4673 66.28ZM107.046 66V49.4782H101.865V45.5578H116.427V49.4782H111.246V66H107.046Z" fill="#0E0227"/>
</svg>
